<svg id="Layer_1" data-name="Layer 1" xmlns="http://www.w3.org/2000/svg" viewBox="0 0 854 279.06">
	<defs>
		<style>
			.cls-1{
			    fill:#fff;
			    stroke:#000;
			    stroke-miterlimit:10;
			}
		</style>
	</defs>
	<title>skyline-layer2</title>
	<polygon class="cls-1" points="160.63 18.5 132.5 66.31 132.5 119.06 130.5 125.06 130.5 232.06 130.5 275.56 187 275.56 183.25 167.56 184.75 68.06 180 54.81 177 48.06 173.5 40.31 160.63 18.5"/><polygon class="cls-1" points="162.5 21.06 162.5 0.06 160.13 20.56 148.5 43.06 148.5 83.06 153.5 94.81 153.5 46.06 162.5 21.06"/><polygon class="cls-1" points="146.5 77.56 148.5 77.56 148.5 80.56 150.5 80.56 150.5 83.56 152.5 83.56 152.5 87.56 153.5 87.56 153.5 91.56 155.5 91.56 155.5 95.56 158.5 95.56 158.5 99.56 161.5 99.56 161.5 160.06 161.5 222.06 161.5 268.06 146.5 267.56 146.5 77.56"/><polygon class="cls-1" points="0.5 269.56 0.5 202.56 8.5 202.56 8.5 192.56 26.5 192.56 26.5 269.56 0.5 269.56"/><polygon class="cls-1" points="26.5 192.81 40.5 199.56 40.5 270.06 26.5 270.56 26.5 192.81"/><polygon class="cls-1" points="166.5 68.06 166.5 64.56 163.5 64.56 163.5 60.56 160.5 60.56 160.5 56.56 157.5 56.56 157.5 52.56 155.5 52.56 155.5 49.06 154.5 46.06 153.5 42.06 161.75 20.56 176 42.56 166.5 68.06"/><polygon class="cls-1" points="175.63 43.06 178.5 44.56 179.5 44.56 179.5 48.06 180.5 49.56 180.5 53.56 181.5 53.56 181.5 57.56 182.5 57.56 182.5 62.56 184.5 62.56 184.5 66.56 186 66.56 186.25 203.31 186 267.56 166.5 267.56 166.5 69.06 175.63 43.06"/><polygon class="cls-1" points="15.5 258.56 15.5 167.56 31.5 167.56 31.5 258.56 28 258.56 27.75 246.72 19.5 246.39 19.5 258.56 15.5 258.56"/><polygon class="cls-1" points="31.25 167.81 51.5 172.06 51.5 258.56 31 258.56 31.25 167.81"/><polygon class="cls-1" points="333.5 258.06 333.5 155.06 347.5 155.31 347.5 147.56 374.5 147.56 374.5 276.56 333 276.56 333.5 258.06"/><polygon class="cls-1" points="464.67 164.72 468.33 166.39 468.33 277.06 464 277.06 464.67 164.72"/><polygon class="cls-1" points="374.5 147.28 385.5 149.39 385.5 277.06 374.5 276.56 374.5 147.28"/><polygon class="cls-1" points="424.5 177.06 424.5 170.56 426.5 170.56 426.5 165.56 449 165.56 451 134.06 452.75 165.72 464.5 165.06 464.5 173.06 469.5 172.72 469.5 277.56 424 277.56 424.5 177.06"/><polygon class="cls-1" points="812.67 266.72 813.33 188.72 820.33 188.72 820.33 178.39 827 178.39 827 169.06 839.13 169.06 839.13 178.72 845.33 178.72 845.33 189.06 853.5 189.06 853.5 276.72 812.67 275.39 812.67 266.72"/><polygon class="cls-1" points="543.5 278.56 543.5 145.56 549.5 145.56 549.5 138.06 552.75 132.39 556.5 138.06 556.5 145.56 561.5 145.56 561.5 138.06 564.75 132.39 568.5 138.39 568.5 145.56 571.5 145.56 571.5 138.06 575 132.39 577.42 138.06 580.5 141.39 580.5 163.06 597.5 162.72 597.5 278.56 543.5 278.56"/><polygon class="cls-1" points="622.5 276.56 622.5 129.56 637.5 129.56 637.5 126.56 644.5 126.56 644.5 129.56 660.5 129.56 660.5 276.56 622.5 276.56"/><polygon class="cls-1" points="660.25 129.56 665.5 130.72 665.5 277.56 660 277.56 660.25 129.56"/><polygon class="cls-1" points="824.75 276.81 824.96 205.6 853.5 203.56 853.5 277.06 824.75 276.81"/><polygon class="cls-1" points="469.33 172.81 473.67 174.72 473.67 277.56 469.33 277.56 469.33 172.81"/>
</svg>